<svg xmlns="http://www.w3.org/2000/svg" viewBox="0 0 1660.28 196.15"><defs><style>.cls-1{fill:none;stroke:#000;stroke-miterlimit:22.93;fill-rule:evenodd;}</style></defs><title>城市勾勒线条</title><g id="图层_2" data-name="图层 2"><g id="图层_1-2" data-name="图层 1"><path class="cls-1" d="M1660.28,193.64l-150.77-.23.1-72.65-53.49-.62-.41,35.7-7.61-.08.23-19.61-12-.14.13-11.41-21.65-.25-.18,15.51-5.27-.06-.19,16.68-14.34-.17v-63l-18.47,0-.08,37-4.27,0,.28-25.17-15.5-.18-.47,40.68-33.66-.39.2-17-28.1-.32-.2,17.85-8.49-.1.13-11.12-18.44-.21-.23,20.48-6.73-.07.46-40.09-24-.28-.39,34.24-6.73-.08,1-85.45-6-.07-.06,4.83L1198,94.35l-4.47,0-.67,58.41-2.78,0,.37-32-13.43-.16-.21,18.4-6.13-.07h-2l.72-51.57-18.15-.21-.43,38.05-8.2-.1-.21,18.73-12.35-.14.87-75.87-6.43-25.15.35-30.26-3,0-.35,30.19-7.25,25.88-.81,70.71L1107,139l.24-20.49-13.47-.15.18-16-10.52-.12-.74,45.18-5.25-.06.39-33.95-26.38-.31-.23,20.77-11-.13-.07,6.45-8.7-.1-.16,13.75-14.59-.16.67-57.81-26.1-.3-.68,58.93-5.33-.06.34-29.47-14.31-.16-.33,28.9-10.1-.12.2-17.39-4.21-.05,0-1.4-2.25,0,.34-29.18-7.58-.09-.37,32-5.33-.06-.16,14.31-10.39-.12.26-22.45L916.59,129l-.3,26.1-3.47,0,.3-26,.1-9.17L899,119.68l-.18,15.72-19-.22,0,2.4-29.36-.33-.24,21-11.68-.14.4-35.15-7.75-.09-.14,12.23-22.81-.26-.08,6.55-23.91-.28-.16,14.74-10.59-.12.19-16.7-16.48-.19-.2,17.13-3.06,0,.31-26.63L738,129.08l-.32,27.4-4.92-.06.14-12.11-3.29,0,.31-26.5-13.8-.16-.24,21.46-5.7-.07.34-29.78L691,109l-.12,10.51-8.32-.09-.06,5-5.25-.06L677,148.27l-10.3-.12.26-22.77-6.57-.08.66-56.71-3.74,0,.14-12.22-2.61-.73.07-5.69-3.5,0,.25-22.34-3.1,0L648.89.65,647,1.14l-.3,26.33-3.07,0-.27,23.21-4.38,0-.2,18-5-.06-.64,56.06-5.26-.06-.34,29.56-8.32-.09.29-25.4-25-.29-.1,8.54-8.32-.1.09-8.32-15.54-.18-.2,17.08-10.29-.11-.24,20.58-9.15-.1.16-16.26-12.75-.15-31,2.05-.41,17.08-11,.1-.13-26.07-12.1-.13-.07,10.07-5.11,6.73-.11,9.19-7.22-.08-.37-25-14,.28L457,154l-5.76,5.63.66,18.19-3.72-.05-.06-32.85-9.2.11-.07,12.2-7.22.06,0-11-5.33-.07,0-11.78L421,126.34l-.05-5.86-1.36,0v5.89l-5.43,8.27L414.07,146l-4.39-.05-.19,17.1-6.14-.5.26-22.38-11-.12-.28-13.6-15.8.25-.05,4.83-14-.16.54,29.4-18.86.22-1.51-98.29-6.09-4.45-19.29-.68-.18,91.7-6.14-.07.07-82-6.08-5.78-21.49-.23,0,94.61-7.65-.14-.06-14.46-12,0-.14,35.23H258l.12-8.5-7.17,0-.5,27.29-17.69.5v-7.89H210.46V183c-1.83-1-5.88-1.93-7.17-2.46a3.78,3.78,0,0,0-1.42.61V170.52h-9v10.22l-.2-.07a6.39,6.39,0,0,0-7.39,2.64l-3.56-1.57v-74h-9.24v75.19s-4.26.24-6,.19c.26-3.77-1-9.05,1.75-10.35h-1.75c.13-3.51-.76-8,1.75-9.18h-1.75c-.07-3.19-.39-6.61,1.75-7.59l-1.75,0c-.27-2.94,0-5.3,1.75-6.25h-1.75c.08-1.8-.38-4.26.78-5-1.54-.37-.65-3.49,0-4.1-1.58-.45-.62-3.61,0-4.3-1.6-.34,0-3.22,0-3.22s-.63.09-.78-.39c-.14-1,.57-1.25.78-1.95-1.69-.28,0-2.38,0-2.38a3.91,3.91,0,0,1-.76-.16c-.19-1.16.53-1.52.78-2.25-1.19.08-1-1.17-2.35-.88.08-1.92-1.24-.3-1.15-2.27a4.36,4.36,0,0,0-1.39-.27,4,4,0,0,1,.24-1.16,9.86,9.86,0,0,1-1.21,0v-3.9l-.63.39,0,0v-2.33H160v-4h-.55v4h-.79v2.36l-.72-.58v4.1h-1.23c0,.46.17.59.2,1.17-.5.06-.71.14-1.17.2a1.61,1.61,0,0,0-.2,1.17c-1.4-.1-1,.9-1.37,1.17-.18.15-.75-.15-1.05.11s0,1.19-1.09.77c0,.89.63,1,.94,1.89.2.65-.43.61-.94.55.19.46,1.7,2.19,0,2.15.12.79.9,1.22.78,1.95.12.52-.44.35-.78.39.1.78,1.81,3.21,0,3.42.33.79,1.79,3.9,0,4.3.42.72,1.43,3.4-.22,4.1,1.64.62,1,4.59,1,4.59h-1.51c1.12.44,2,3.06,1.68,6.25-.12.68-1.08.29-1.48.41,1.1.92,1.56,4.28,1.31,7.2,0,.62-1.45.37-1.45.37a3.33,3.33,0,0,1,1.45,2,33.94,33.94,0,0,1-.3,7.16,1.24,1.24,0,0,1-1.39-1.13V151.1H149.3v-2.35l-1.37-.39v-3.71l-2.66-4.18-.71-4.75-.29,0-.65,4.73-2.91,4.18v2.54L137,148.55v6.64l-2.93-.2v-7.62l-4.1.2-.39,2.54h-2.42l.86,4.49a10.72,10.72,0,0,1-2,.78c-.89-2.55-2-4.92-2.93-7.42a38.41,38.41,0,0,0-3.12,4.88l1.76,2.35h-3.62V125.7s-5.57,1.5-8.1,2.34v29.49c-1-2.71.85-7.42-3.25-8.16-.17-.48-.44-2-.44-2l-.37,2a5.15,5.15,0,0,0-1.36.4,4.26,4.26,0,0,0-1.32,1V133.7l-6.73-4.1-6.15,6.25v34.76h-8.5c.55-1.16,3.43-2.82,3.51-6.64.07-3.09-2.1-5.15-4.68-6.44v-29.1l0-.07a5.63,5.63,0,0,0-1.15-9.93,3.48,3.48,0,0,0-1.23-.35v-6.25a.61.61,0,0,1,0-.12,2.39,2.39,0,0,0-.3-4.42V97.48a1.26,1.26,0,0,0,.51-1,1.24,1.24,0,0,0-.85-1.18c0-.56,0-1.12-.07-1.68l-.18-4.72h-.35L77,95.31h0a1.24,1.24,0,0,0-.8,1.16,1.27,1.27,0,0,0,.55,1v9.77a2.38,2.38,0,0,0-.28,4.45v6.35h0a5.74,5.74,0,0,0-4.84,5.61,5.64,5.64,0,0,0,2.52,4.68v29.15c-5.11,1.56-5.76,7.95-2.43,11.25a4.38,4.38,0,0,0,.92.75,5.84,5.84,0,0,1,.53.3c-.17-.08-.35-.06-.53-.16s-.55-.39-1-.61c-6.53-4.12-18.16-.13-15.31,10.34-1.38.32-3,.36-4.49.59V156.94l-3.52-2.73v-4.69l-6.05-3.61L42,141.62l-.22,0-.47,4.31-4.87,3.74v2.22l1.17,1,0,1.32-2.36,1s0,18.05,0,25.8l-6.17,1.25v5.06C28.14,186.66,2,185.64.5,185.65v3.12c0,.1,0,6.79,0,6.87"/></g></g></svg>